<svg width="100" height="100" viewBox="0 0 100 100" fill="none" xmlns="http://www.w3.org/2000/svg">
<path d="M100 50.0001C100 77.6144 77.6142 100 50 100C22.3858 100 0 77.6144 0 50.0001C0 22.3859 22.3858 0.00012207 50 0.00012207C77.6142 0.00012207 100 22.3859 100 50.0001Z" fill="#7C1C8A"/>
<path fill-rule="evenodd" clip-rule="evenodd" d="M47.0998 35.858L59.8277 48.5859C60.6087 49.367 60.6087 50.6333 59.8277 51.4144L47.0998 64.1423C46.3187 64.9233 45.0524 64.9233 44.2713 64.1423C43.4903 63.3612 43.4903 62.0949 44.2713 61.3138L55.585 50.0001L44.2713 38.6864C43.4903 37.9054 43.4903 36.6391 44.2713 35.858C45.0524 35.077 46.3187 35.077 47.0998 35.858Z" fill="white"/>
</svg>
